<svg width="119" height="20" viewBox="0 0 119 20" fill="none" xmlns="http://www.w3.org/2000/svg">
<path d="M1.1 15.8C1.44667 15.8 1.74 15.68 1.98 15.44C2.23333 15.1867 2.36667 14.8867 2.38 14.54V3.4C2.34 2.93333 2.12 2.58667 1.72 2.36C1.52 2.25333 1.31333 2.2 1.1 2.2H0.84V2H6.46C7.04667 2 7.56 1.95333 8 1.86C8.44 1.76667 8.72667 1.69333 8.86 1.64V5.14H8.64V4.9C8.65333 4.3 8.48 3.82 8.12 3.46C7.77333 3.08667 7.3 2.88667 6.7 2.86H5.38V8.68H8.56C9.05333 8.66667 9.46 8.5 9.78 8.18C10.1 7.84667 10.26 7.44 10.26 6.96V6.78H10.44V11.4H10.26V11.24C10.26 10.7467 10.1 10.34 9.78 10.02C9.46 9.7 9.06 9.53333 8.58 9.52H5.38V15.14H9.28C10.2533 15.14 11.0667 14.86 11.72 14.3C12.3867 13.74 12.88 12.9467 13.2 11.92H13.4L12.46 16H0.84V15.8H1.1ZM21.9784 15.8C22.2584 15.8 22.4851 15.6667 22.6584 15.4C22.7384 15.2533 22.7784 15.1133 22.7784 14.98C22.7784 14.8467 22.7384 14.7133 22.6584 14.58L19.8584 10.22L16.9184 14.56C16.6918 14.96 16.7584 15.3067 17.1184 15.6C17.2784 15.7333 17.4451 15.8 17.6184 15.8H17.8784V16H12.9384V15.8H13.2184C13.9651 15.8 14.6251 15.4267 15.1984 14.68L19.1384 9.1L15.4384 3.38C15.2118 3.04667 14.9184 2.76667 14.5584 2.54C14.1984 2.31333 13.8184 2.2 13.4184 2.2H13.1384V2H19.9384V2.2H19.6784C19.3984 2.2 19.1718 2.33333 18.9984 2.6C18.9184 2.74667 18.8784 2.89333 18.8784 3.04C18.8784 3.17333 18.9118 3.3 18.9784 3.42L21.4784 7.28L23.9384 3.44C24.0184 3.30667 24.0584 3.17333 24.0584 3.04C24.0584 2.89333 24.0118 2.75333 23.9184 2.62C23.7451 2.34 23.5184 2.2 23.2384 2.2H22.9784V2H27.8984V2.2H27.6184C27.2184 2.2 26.8451 2.31333 26.4984 2.54C26.1518 2.75333 25.8584 3.02667 25.6184 3.36L22.2184 8.42L26.2384 14.64C26.4651 14.9733 26.7584 15.2533 27.1184 15.48C27.4918 15.6933 27.8718 15.8 28.2584 15.8H28.5384V16H21.7184V15.8H21.9784ZM42.7288 15.8H42.9088V16H36.5288V15.8H36.7088C37.0021 15.8 37.2154 15.7133 37.3488 15.54C37.4954 15.3533 37.5688 15.18 37.5688 15.02C37.5688 14.86 37.5354 14.7 37.4688 14.54L36.4888 12.08H31.8088L30.7688 14.54C30.7021 14.7133 30.6688 14.88 30.6688 15.04C30.6688 15.1867 30.7354 15.3533 30.8688 15.54C31.0154 15.7133 31.2421 15.8 31.5488 15.8H31.7088V16H27.4287V15.8H27.6087C27.9154 15.8 28.2221 15.7067 28.5288 15.52C28.8354 15.3333 29.0888 15.0533 29.2887 14.68L33.9088 4.22C34.5354 2.9 34.8688 2.02667 34.9088 1.6H35.0888L41.0288 14.64C41.2288 15.0267 41.4821 15.32 41.7888 15.52C42.0954 15.7067 42.4088 15.8 42.7288 15.8ZM32.1488 11.24H36.1488L34.2088 6.32L32.1488 11.24ZM61.2252 15.8H61.5452V16H55.5452V15.82H55.8452C56.0718 15.82 56.2652 15.7333 56.4252 15.56C56.5852 15.3733 56.6518 15.1733 56.6252 14.96L55.8452 7.7L52.0852 14.18C51.5918 15.0067 51.3385 15.7467 51.3252 16.4H51.1252L45.9852 7.76L45.2052 14.96C45.1785 15.1733 45.2452 15.3733 45.4052 15.56C45.5652 15.7333 45.7585 15.82 45.9852 15.82H46.2852V16H42.1052V15.8H42.4252C42.7985 15.8 43.1185 15.6867 43.3852 15.46C43.6652 15.2333 43.8318 14.9267 43.8852 14.54L45.5452 1.72H45.7252L51.9252 11.92L57.8852 1.72H58.0652L59.7652 14.54C59.8318 14.9267 59.9985 15.2333 60.2652 15.46C60.5452 15.6867 60.8652 15.8 61.2252 15.8ZM59.4277 0.679999C60.1877 0.359999 60.8477 0.2 61.4077 0.2C61.9677 0.2 62.461 0.253333 62.8877 0.359999C63.3143 0.466666 63.7477 0.646666 64.1877 0.899999C64.641 1.14 65.061 1.44 65.4477 1.8C66.1943 2.50667 66.8277 3.30667 67.3477 4.2L71.3477 11.7L77.1477 1.72H77.3277L79.4077 13.48C79.7277 15.2933 80.281 16.7333 81.0677 17.8C81.8543 18.88 82.9343 19.42 84.3077 19.42C84.401 19.42 84.4877 19.42 84.5677 19.42V19.62C83.8343 19.82 83.1143 19.92 82.4077 19.92C80.9677 19.92 79.6543 19.3533 78.4677 18.22C77.321 17.14 76.541 15.56 76.1277 13.48L75.1477 7.66L71.3877 14.18C70.881 15.02 70.621 15.76 70.6077 16.4H70.4277L65.4477 6.96L64.4677 14.96C64.4277 15.2667 64.561 15.5133 64.8677 15.7C64.9877 15.78 65.1143 15.82 65.2477 15.82H65.5677V16H61.3877V15.8H61.7077C62.0543 15.8 62.361 15.7 62.6277 15.5C62.9077 15.2867 63.081 15 63.1477 14.64L64.5077 5.1C63.9077 4.03333 63.221 3.08667 62.4477 2.26C61.581 1.32667 60.6743 0.859999 59.7277 0.859999C59.6343 0.859999 59.5477 0.866666 59.4677 0.879999L59.4277 0.679999ZM95.4631 15.8H95.6431V16H89.2631V15.8H89.4431C89.7365 15.8 89.9498 15.7133 90.0831 15.54C90.2298 15.3533 90.3031 15.18 90.3031 15.02C90.3031 14.86 90.2698 14.7 90.2031 14.54L89.2231 12.08H84.5431L83.5031 14.54C83.4365 14.7133 83.4031 14.88 83.4031 15.04C83.4031 15.1867 83.4698 15.3533 83.6031 15.54C83.7498 15.7133 83.9765 15.8 84.2831 15.8H84.4431V16H80.1631V15.8H80.3431C80.6498 15.8 80.9565 15.7067 81.2631 15.52C81.5698 15.3333 81.8231 15.0533 82.0231 14.68L86.6431 4.22C87.2698 2.9 87.6031 2.02667 87.6431 1.6H87.8231L93.7631 14.64C93.9631 15.0267 94.2165 15.32 94.5231 15.52C94.8298 15.7067 95.1431 15.8 95.4631 15.8ZM84.8831 11.24H88.8831L86.9431 6.32L84.8831 11.24ZM101.442 2.82V14.56C101.455 14.9067 101.582 15.2 101.822 15.44C102.075 15.68 102.375 15.8 102.722 15.8H102.962L102.982 16H96.9017V15.8H97.1617C97.4951 15.8 97.7817 15.68 98.0217 15.44C98.2751 15.2 98.4151 14.9133 98.4417 14.58V2.82H95.7417C95.1284 2.83333 94.6417 3.02667 94.2817 3.4C93.9217 3.77333 93.7417 4.26 93.7417 4.86V5.1H93.5417V1.62C93.7284 1.7 94.0617 1.78 94.5417 1.86C95.0351 1.94 95.4884 1.98 95.9017 1.98H103.962C104.615 1.96667 105.148 1.91333 105.562 1.82C105.975 1.72667 106.228 1.66 106.322 1.62V5.1H106.122V4.86C106.122 4.26 105.942 3.77333 105.582 3.4C105.222 3.02667 104.735 2.83333 104.122 2.82H101.442ZM107.682 15.8C108.029 15.8 108.322 15.68 108.562 15.44C108.815 15.1867 108.949 14.8867 108.962 14.54V3.4C108.922 2.93333 108.702 2.58667 108.302 2.36C108.102 2.25333 107.895 2.2 107.682 2.2H107.422V2H115.082C115.495 2 115.949 1.96 116.442 1.88C116.935 1.8 117.282 1.72 117.482 1.64V5.14H117.282V4.9C117.282 4.3 117.102 3.82 116.742 3.46C116.395 3.08667 115.922 2.88667 115.322 2.86H111.962V8.68H114.602C115.095 8.66667 115.502 8.5 115.822 8.18C116.142 7.84667 116.302 7.44 116.302 6.96V6.78H116.502V11.4H116.302V11.24C116.302 10.5733 116.035 10.08 115.502 9.76C115.235 9.61333 114.942 9.53333 114.622 9.52H111.962V15.14H114.582C115.555 15.14 116.369 14.86 117.022 14.3C117.689 13.74 118.182 12.9467 118.502 11.92H118.702L117.782 16H107.422V15.8H107.682Z" fill="url(#paint0_linear_50_2569)"/>
<defs>
<linearGradient id="paint0_linear_50_2569" x1="0" y1="9.5" x2="166.023" y2="-71.7589" gradientUnits="userSpaceOnUse">
<stop stop-color="#50C1AF"/>
<stop offset="0.828338"/>
<stop offset="0.944373" stop-color="#FFCC31"/>
</linearGradient>
</defs>
</svg>
